<?xml version="1.0" standalone="no"?>
<!DOCTYPE svg PUBLIC "-//W3C//DTD SVG 20010904//EN"
 "http://www.w3.org/TR/2001/REC-SVG-20010904/DTD/svg10.dtd">
<svg version="1.0" xmlns="http://www.w3.org/2000/svg"
 width="260.000000pt" height="260.000000pt" viewBox="0 0 260.000000 260.000000"
 preserveAspectRatio="xMidYMid meet">
<metadata>
Created by potrace 1.11, written by Peter Selinger 2001-2013
</metadata>
<g transform="translate(0.000000,260.000000) scale(0.100000,-0.100000)"
fill="#000000" stroke="none">
<path d="M1348 2573 c-7 -16 -12 -64 -12 -108 0 -66 4 -90 27 -140 16 -33 46
-79 69 -102 96 -98 257 -127 384 -69 76 34 135 93 171 171 23 50 27 74 27 140
0 44 -5 92 -12 108 l-12 27 -315 0 -315 0 -12 -27z"/>
<path d="M893 2083 c115 -2 299 -2 410 0 111 1 18 2 -208 2 -226 0 -316 -1
-202 -2z"/>
<path d="M1684 1960 c0 -58 1 -81 3 -52 2 28 2 76 0 105 -2 28 -3 5 -3 -53z"/>
<path d="M654 1725 c0 -181 2 -257 3 -168 2 89 2 237 0 330 -1 92 -3 20 -3
-162z"/>
<path d="M1534 1725 c0 -181 2 -257 3 -168 2 89 2 237 0 330 -1 92 -3 20 -3
-162z"/>
<path d="M727 2022 c-15 -16 -17 -52 -17 -299 0 -258 1 -281 18 -296 17 -15
57 -17 369 -17 326 0 351 1 366 18 15 16 17 52 17 299 0 258 -1 281 -18 296
-17 15 -57 17 -369 17 -326 0 -351 -1 -366 -18z m314 -46 c30 -30 55 -59 55
-65 1 -6 3 -13 4 -16 1 -3 4 -9 5 -15 1 -5 4 -12 5 -15 7 -14 5 -72 -3 -82 -5
-7 -6 -13 -2 -13 5 0 1 -8 -7 -17 -8 -10 -18 -26 -21 -35 -3 -9 -28 -28 -54
-41 -85 -44 -214 -31 -280 27 -22 18 -23 27 -23 145 0 141 5 168 29 174 9 3
66 5 127 6 l111 1 54 -54z"/>
<path d="M1694 1660 c0 -58 1 -81 3 -52 2 28 2 76 0 105 -2 28 -3 5 -3 -53z"/>
<path d="M1704 1360 c0 -58 1 -81 3 -52 2 28 2 76 0 105 -2 28 -3 5 -3 -53z"/>
<path d="M893 1363 c115 -2 299 -2 410 0 111 1 18 2 -208 2 -226 0 -316 -1
-202 -2z"/>
<path d="M893 1243 c115 -2 299 -2 410 0 111 1 18 2 -208 2 -226 0 -316 -1
-202 -2z"/>
<path d="M652 1172 c-2 -32 -8 -49 -24 -63 l-23 -19 31 16 c62 34 124 -17 124
-101 0 -84 -62 -135 -124 -101 l-31 16 23 -19 c20 -17 22 -28 22 -103 0 -53
-5 -89 -12 -98 -7 -8 2 -2 20 14 30 28 32 34 32 98 l0 68 35 0 35 0 0 -73 c0
-68 2 -75 28 -98 l27 -24 -22 26 c-19 21 -23 37 -23 97 0 68 1 72 25 78 80 20
99 168 28 223 -20 17 -40 21 -94 21 l-68 0 -4 43 -4 42 -1 -43z m28 -361 c0
-39 -4 -73 -10 -76 -6 -4 -10 22 -10 69 0 44 4 76 10 76 6 0 10 -30 10 -69z"/>
<path d="M1534 885 c0 -181 2 -277 6 -211 5 110 6 117 21 100 9 -11 20 -26 25
-36 8 -14 11 -13 28 10 17 24 17 25 1 10 -17 -16 -20 -15 -47 19 -32 41 -38
97 -12 107 9 4 18 5 18 4 1 -2 19 -24 39 -50 21 -27 36 -52 33 -57 -3 -4 7 -6
21 -3 24 5 25 6 7 12 -16 7 -66 61 -87 96 -4 6 0 26 9 43 21 42 11 92 -26 134
-23 27 -30 45 -33 93 -2 32 -3 -89 -3 -271z"/>
<path d="M1714 1070 c0 -58 1 -81 3 -52 2 28 2 76 0 105 -2 28 -3 5 -3 -53z"/>
<path d="M595 1069 c-4 -6 -5 -12 -2 -15 2 -3 7 2 10 11 7 17 1 20 -8 4z"/>
<path d="M582 1005 c0 -16 2 -22 5 -12 2 9 2 23 0 30 -3 6 -5 -1 -5 -18z"/>
<path d="M590 951 c0 -6 4 -13 10 -16 6 -3 7 1 4 9 -7 18 -14 21 -14 7z"/>
<path d="M1722 828 c-1 -26 -7 -49 -14 -51 -8 -3 -6 -6 5 -6 9 -1 26 -16 37
-33 11 -18 20 -28 20 -22 0 6 -9 22 -19 36 -12 14 -21 45 -24 74 l-3 49 -2
-47z"/>
<path d="M708 743 c6 -2 18 -2 25 0 6 3 1 5 -13 5 -14 0 -19 -2 -12 -5z"/>
<path d="M1582 685 c0 -16 2 -22 5 -12 2 9 2 23 0 30 -3 6 -5 -1 -5 -18z"/>
<path d="M622 650 c0 -14 2 -19 5 -12 2 6 2 18 0 25 -3 6 -5 1 -5 -13z"/>
<path d="M812 650 c0 -14 2 -19 5 -12 2 6 2 18 0 25 -3 6 -5 1 -5 -13z"/>
<path d="M1738 628 c-18 -18 -37 -28 -57 -28 -16 0 -32 -4 -35 -9 -13 -20 78
9 102 33 14 14 24 27 21 29 -2 1 -16 -10 -31 -25z"/>
<path d="M1612 614 c10 -10 20 -15 24 -12 3 4 -5 12 -18 18 -22 12 -22 12 -6
-6z"/>
<path d="M643 587 c6 -13 17 -24 24 -24 9 0 5 9 -9 24 -12 13 -23 23 -24 23
-1 0 3 -10 9 -23z"/>
<path d="M779 583 l-24 -28 28 24 c25 23 32 31 24 31 -2 0 -14 -12 -28 -27z"/>
<path d="M708 553 c6 -2 18 -2 25 0 6 3 1 5 -13 5 -14 0 -19 -2 -12 -5z"/>
<path d="M1534 518 l-19 -23 23 19 c21 18 27 26 19 26 -2 0 -12 -10 -23 -22z"/>
<path d="M893 523 c115 -2 299 -2 410 0 111 1 18 2 -208 2 -226 0 -316 -1
-202 -2z"/>
<path d="M872 478 c-7 -7 -12 -19 -11 -27 0 -10 4 -7 9 7 9 22 11 22 225 22
214 0 216 0 225 -22 5 -14 9 -17 9 -8 2 37 -18 40 -234 40 -151 0 -214 -3
-223 -12z"/>
<path d="M895 380 c10 -11 20 -20 23 -20 3 0 -3 9 -13 20 -10 11 -20 20 -23
20 -3 0 3 -9 13 -20z"/>
<path d="M1284 378 l-19 -23 23 19 c21 18 27 26 19 26 -2 0 -12 -10 -23 -22z"/>
<path d="M1022 343 c37 -2 100 -2 140 0 40 1 10 3 -67 3 -77 0 -110 -1 -73 -3z"/>
<path d="M1082 268 c-16 -16 -15 -25 5 -32 19 -8 34 10 26 31 -6 16 -15 17
-31 1z"/>
<path d="M1086 191 c-4 -5 -2 -12 3 -15 5 -4 12 -2 15 3 4 5 2 12 -3 15 -5 4
-12 2 -15 -3z"/>
</g>
</svg>
